<!DOCTYPE svg PUBLIC "-//W3C//DTD SVG 1.1//EN" "http://www.w3.org/Graphics/SVG/1.1/DTD/svg11.dtd">
<!-- Uploaded to: SVG Repo, www.svgrepo.com, Transformed by: SVG Repo Mixer Tools -->
<svg fill="#a52a2a" version="1.1" id="Capa_1" xmlns="http://www.w3.org/2000/svg" xmlns:xlink="http://www.w3.org/1999/xlink" width="800px" height="800px" viewBox="0 0 576.795 576.795" xml:space="preserve" stroke="#a52a2a">
<g id="SVGRepo_bgCarrier" stroke-width="0"/>
<g id="SVGRepo_tracerCarrier" stroke-linecap="round" stroke-linejoin="round"/>
<g id="SVGRepo_iconCarrier"> <g> <path d="M570.6,248.818C538.164,90.31,381.492-22.91,221.76,10.138C131.796,29.11,64.476,91.534,28.98,169.258 c-9.18,13.464-15.3,28.152-15.912,42.84c-13.464,45.288-16.524,94.248-9.18,141.372c22.644,140.148,159.12,219.708,293.148,218.484 c1.836,0.611,4.284,0.611,6.731,0c11.628-0.612,23.868-1.225,35.496-3.061c3.061-0.612,4.896-2.448,6.12-4.284 c67.32-18.359,130.968-48.96,178.092-102.204C575.496,403.042,585.288,322.258,570.6,248.818z M125.676,370.605 c-11.016-28.764-14.688-60.588-12.852-91.8c5.508-100.98,93.024-164.016,188.496-159.732c16.524,0.612,33.049,3.672,48.349,9.18 c-8.568,11.628-17.136,25.092-23.868,33.048c-29.988,31.212-62.424,61.812-94.248,92.412c-28.152,27.54-56.304,55.08-82.008,84.456 C142.2,347.35,131.796,358.366,125.676,370.605z M273.168,477.094c-1.836,0-3.672,1.224-4.896,2.448 c-22.644-0.612-44.676-7.956-64.872-18.973c9.18-7.344,17.136-18.359,23.868-24.479c29.376-29.376,57.528-59.977,86.292-90.576 c25.704-26.928,52.021-52.02,79.561-76.5c16.523-14.688,45.899-35.496,60.588-58.752c15.912,26.316,25.704,56.916,26.315,88.74 C481.859,409.773,365.58,464.241,273.168,477.094z"/> </g> </g>
</svg>